<mxfile host="app.diagrams.net" agent="Mozilla/5.0 (Macintosh; Intel Mac OS X 10_15_7) AppleWebKit/605.1.15 (KHTML, like Gecko) Version/18.0.1 Safari/605.1.15" version="24.7.17">
  <diagram id="R2lEEEUBdFMjLlhIrx00" name="Page-1">
    <mxGraphModel dx="1578" dy="1108" grid="1" gridSize="10" guides="1" tooltips="1" connect="1" arrows="1" fold="1" page="1" pageScale="1" pageWidth="850" pageHeight="1100" math="0" shadow="0" extFonts="Permanent Marker^https://fonts.googleapis.com/css?family=Permanent+Marker">
      <root>
        <mxCell id="0" />
        <mxCell id="1" parent="0" />
        <mxCell id="1G_n7T1OoWQBEBEUNHC1-66" value="" style="rounded=0;whiteSpace=wrap;html=1;" vertex="1" parent="1">
          <mxGeometry x="90" y="70" width="670" height="950" as="geometry" />
        </mxCell>
        <mxCell id="1G_n7T1OoWQBEBEUNHC1-1" value="Locations" style="text;html=1;align=center;verticalAlign=middle;resizable=0;points=[];autosize=1;strokeColor=none;fillColor=none;" vertex="1" parent="1">
          <mxGeometry x="138" y="114" width="70" height="30" as="geometry" />
        </mxCell>
        <mxCell id="1G_n7T1OoWQBEBEUNHC1-3" value="&lt;u&gt;location_id&lt;/u&gt;" style="whiteSpace=wrap;html=1;" vertex="1" parent="1">
          <mxGeometry x="143" y="136" width="80" height="20" as="geometry" />
        </mxCell>
        <mxCell id="1G_n7T1OoWQBEBEUNHC1-4" value="city" style="whiteSpace=wrap;html=1;" vertex="1" parent="1">
          <mxGeometry x="223" y="136" width="40" height="20" as="geometry" />
        </mxCell>
        <mxCell id="1G_n7T1OoWQBEBEUNHC1-5" value="nation" style="whiteSpace=wrap;html=1;" vertex="1" parent="1">
          <mxGeometry x="313" y="136" width="60" height="20" as="geometry" />
        </mxCell>
        <mxCell id="1G_n7T1OoWQBEBEUNHC1-6" value="state" style="whiteSpace=wrap;html=1;" vertex="1" parent="1">
          <mxGeometry x="263" y="136" width="50" height="20" as="geometry" />
        </mxCell>
        <mxCell id="1G_n7T1OoWQBEBEUNHC1-7" value="Teams" style="text;html=1;align=center;verticalAlign=middle;resizable=0;points=[];autosize=1;strokeColor=none;fillColor=none;" vertex="1" parent="1">
          <mxGeometry x="138" y="196" width="60" height="30" as="geometry" />
        </mxCell>
        <mxCell id="1G_n7T1OoWQBEBEUNHC1-8" value="&lt;u&gt;team_id&lt;/u&gt;" style="whiteSpace=wrap;html=1;" vertex="1" parent="1">
          <mxGeometry x="143" y="218" width="90" height="20" as="geometry" />
        </mxCell>
        <mxCell id="1G_n7T1OoWQBEBEUNHC1-37" style="edgeStyle=orthogonalEdgeStyle;rounded=0;orthogonalLoop=1;jettySize=auto;html=1;exitX=0.5;exitY=1;exitDx=0;exitDy=0;entryX=0.438;entryY=1.042;entryDx=0;entryDy=0;entryPerimeter=0;" edge="1" parent="1" source="1G_n7T1OoWQBEBEUNHC1-9" target="1G_n7T1OoWQBEBEUNHC1-3">
          <mxGeometry relative="1" as="geometry">
            <mxPoint x="270.14285714285717" y="176" as="targetPoint" />
            <Array as="points">
              <mxPoint x="253" y="238" />
              <mxPoint x="253" y="256" />
              <mxPoint x="643" y="256" />
              <mxPoint x="643" y="176" />
              <mxPoint x="178" y="176" />
            </Array>
          </mxGeometry>
        </mxCell>
        <mxCell id="1G_n7T1OoWQBEBEUNHC1-9" value="location" style="whiteSpace=wrap;html=1;" vertex="1" parent="1">
          <mxGeometry x="231.75" y="218" width="60" height="20" as="geometry" />
        </mxCell>
        <mxCell id="1G_n7T1OoWQBEBEUNHC1-12" value="team_name" style="whiteSpace=wrap;html=1;" vertex="1" parent="1">
          <mxGeometry x="291.75" y="218" width="75" height="20" as="geometry" />
        </mxCell>
        <mxCell id="1G_n7T1OoWQBEBEUNHC1-13" value="division" style="whiteSpace=wrap;html=1;" vertex="1" parent="1">
          <mxGeometry x="366.75" y="218" width="57.5" height="20" as="geometry" />
        </mxCell>
        <mxCell id="1G_n7T1OoWQBEBEUNHC1-14" value="cap_space" style="whiteSpace=wrap;html=1;" vertex="1" parent="1">
          <mxGeometry x="424.25" y="218" width="75" height="20" as="geometry" />
        </mxCell>
        <mxCell id="1G_n7T1OoWQBEBEUNHC1-15" value="cap_hit" style="whiteSpace=wrap;html=1;" vertex="1" parent="1">
          <mxGeometry x="499.25" y="218" width="60" height="20" as="geometry" />
        </mxCell>
        <mxCell id="1G_n7T1OoWQBEBEUNHC1-16" value="roster_size" style="whiteSpace=wrap;html=1;" vertex="1" parent="1">
          <mxGeometry x="559.25" y="218" width="75" height="20" as="geometry" />
        </mxCell>
        <mxCell id="1G_n7T1OoWQBEBEUNHC1-19" value="Person" style="text;html=1;align=center;verticalAlign=middle;resizable=0;points=[];autosize=1;strokeColor=none;fillColor=none;" vertex="1" parent="1">
          <mxGeometry x="143" y="336" width="60" height="30" as="geometry" />
        </mxCell>
        <mxCell id="1G_n7T1OoWQBEBEUNHC1-20" value="&lt;u&gt;person_id&lt;/u&gt;" style="whiteSpace=wrap;html=1;" vertex="1" parent="1">
          <mxGeometry x="148" y="358" width="80" height="20" as="geometry" />
        </mxCell>
        <mxCell id="1G_n7T1OoWQBEBEUNHC1-21" value="last_name" style="whiteSpace=wrap;html=1;" vertex="1" parent="1">
          <mxGeometry x="380" y="358" width="71.75" height="20" as="geometry" />
        </mxCell>
        <mxCell id="1G_n7T1OoWQBEBEUNHC1-22" value="birthdate" style="whiteSpace=wrap;html=1;" vertex="1" parent="1">
          <mxGeometry x="451.75" y="358" width="67.5" height="20" as="geometry" />
        </mxCell>
        <mxCell id="1G_n7T1OoWQBEBEUNHC1-23" value="nationality" style="whiteSpace=wrap;html=1;" vertex="1" parent="1">
          <mxGeometry x="519.25" y="358" width="70" height="20" as="geometry" />
        </mxCell>
        <mxCell id="1G_n7T1OoWQBEBEUNHC1-24" value="Players" style="text;html=1;align=center;verticalAlign=middle;resizable=0;points=[];autosize=1;strokeColor=none;fillColor=none;" vertex="1" parent="1">
          <mxGeometry x="143" y="426" width="60" height="30" as="geometry" />
        </mxCell>
        <mxCell id="1G_n7T1OoWQBEBEUNHC1-38" style="edgeStyle=orthogonalEdgeStyle;rounded=0;orthogonalLoop=1;jettySize=auto;html=1;exitX=0.75;exitY=1;exitDx=0;exitDy=0;entryX=0.25;entryY=1;entryDx=0;entryDy=0;" edge="1" parent="1" source="1G_n7T1OoWQBEBEUNHC1-25" target="1G_n7T1OoWQBEBEUNHC1-20">
          <mxGeometry relative="1" as="geometry">
            <mxPoint x="158" y="396" as="targetPoint" />
            <Array as="points">
              <mxPoint x="208" y="488" />
              <mxPoint x="491" y="488" />
              <mxPoint x="491" y="426" />
              <mxPoint x="168" y="426" />
            </Array>
          </mxGeometry>
        </mxCell>
        <mxCell id="1G_n7T1OoWQBEBEUNHC1-25" value="&lt;u&gt;player_id&lt;/u&gt;" style="whiteSpace=wrap;html=1;" vertex="1" parent="1">
          <mxGeometry x="148" y="448" width="80" height="20" as="geometry" />
        </mxCell>
        <mxCell id="1G_n7T1OoWQBEBEUNHC1-26" value="position" style="whiteSpace=wrap;html=1;" vertex="1" parent="1">
          <mxGeometry x="228" y="448" width="60" height="20" as="geometry" />
        </mxCell>
        <mxCell id="1G_n7T1OoWQBEBEUNHC1-27" value="number" style="whiteSpace=wrap;html=1;" vertex="1" parent="1">
          <mxGeometry x="288" y="448" width="60" height="20" as="geometry" />
        </mxCell>
        <mxCell id="1G_n7T1OoWQBEBEUNHC1-28" value="height" style="whiteSpace=wrap;html=1;" vertex="1" parent="1">
          <mxGeometry x="348" y="448" width="60" height="20" as="geometry" />
        </mxCell>
        <mxCell id="1G_n7T1OoWQBEBEUNHC1-29" value="weight" style="whiteSpace=wrap;html=1;" vertex="1" parent="1">
          <mxGeometry x="408" y="448" width="60" height="20" as="geometry" />
        </mxCell>
        <mxCell id="1G_n7T1OoWQBEBEUNHC1-32" value="Coaches" style="text;html=1;align=center;verticalAlign=middle;resizable=0;points=[];autosize=1;strokeColor=none;fillColor=none;" vertex="1" parent="1">
          <mxGeometry x="138" y="536" width="70" height="30" as="geometry" />
        </mxCell>
        <mxCell id="1G_n7T1OoWQBEBEUNHC1-39" style="edgeStyle=orthogonalEdgeStyle;rounded=0;orthogonalLoop=1;jettySize=auto;html=1;exitX=0.5;exitY=1;exitDx=0;exitDy=0;entryX=0.5;entryY=1;entryDx=0;entryDy=0;" edge="1" parent="1" source="1G_n7T1OoWQBEBEUNHC1-33" target="1G_n7T1OoWQBEBEUNHC1-20">
          <mxGeometry relative="1" as="geometry">
            <mxPoint x="198" y="396" as="targetPoint" />
            <Array as="points">
              <mxPoint x="188" y="616" />
              <mxPoint x="519" y="616" />
              <mxPoint x="519" y="406" />
              <mxPoint x="188" y="406" />
            </Array>
          </mxGeometry>
        </mxCell>
        <mxCell id="1G_n7T1OoWQBEBEUNHC1-33" value="&lt;u&gt;coach_id&lt;/u&gt;" style="whiteSpace=wrap;html=1;" vertex="1" parent="1">
          <mxGeometry x="148" y="558" width="80" height="20" as="geometry" />
        </mxCell>
        <mxCell id="1G_n7T1OoWQBEBEUNHC1-40" style="edgeStyle=orthogonalEdgeStyle;rounded=0;orthogonalLoop=1;jettySize=auto;html=1;exitX=0.5;exitY=1;exitDx=0;exitDy=0;" edge="1" parent="1" source="1G_n7T1OoWQBEBEUNHC1-34">
          <mxGeometry relative="1" as="geometry">
            <mxPoint x="213" y="238" as="targetPoint" />
            <Array as="points">
              <mxPoint x="253" y="578" />
              <mxPoint x="253" y="600" />
              <mxPoint x="600" y="600" />
              <mxPoint x="600" y="266" />
              <mxPoint x="213" y="266" />
            </Array>
          </mxGeometry>
        </mxCell>
        <mxCell id="1G_n7T1OoWQBEBEUNHC1-34" value="team_id&lt;span style=&quot;caret-color: rgba(0, 0, 0, 0); color: rgba(0, 0, 0, 0); font-family: monospace; font-size: 0px; text-align: start; white-space: nowrap;&quot;&gt;%3CmxGraphModel%3E%3Croot%3E%3CmxCell%20id%3D%220%22%2F%3E%3CmxCell%20id%3D%221%22%20parent%3D%220%22%2F%3E%3CmxCell%20id%3D%222%22%20value%3D%22position%22%20style%3D%22whiteSpace%3Dwrap%3Bhtml%3D1%3B%22%20vertex%3D%221%22%20parent%3D%221%22%3E%3CmxGeometry%20x%3D%22220%22%20y%3D%22502%22%20width%3D%2260%22%20height%3D%2220%22%20as%3D%22geometry%22%2F%3E%3C%2FmxCell%3E%3C%2Froot%3E%3C%2FmxGraphModel%3E&lt;/span&gt;" style="whiteSpace=wrap;html=1;" vertex="1" parent="1">
          <mxGeometry x="228" y="558" width="60" height="20" as="geometry" />
        </mxCell>
        <mxCell id="1G_n7T1OoWQBEBEUNHC1-35" value="role" style="whiteSpace=wrap;html=1;" vertex="1" parent="1">
          <mxGeometry x="288" y="558" width="60" height="20" as="geometry" />
        </mxCell>
        <mxCell id="1G_n7T1OoWQBEBEUNHC1-41" value="Contracts" style="text;html=1;align=center;verticalAlign=middle;resizable=0;points=[];autosize=1;strokeColor=none;fillColor=none;" vertex="1" parent="1">
          <mxGeometry x="143" y="666" width="70" height="30" as="geometry" />
        </mxCell>
        <mxCell id="1G_n7T1OoWQBEBEUNHC1-45" style="edgeStyle=orthogonalEdgeStyle;rounded=0;orthogonalLoop=1;jettySize=auto;html=1;exitX=0.5;exitY=1;exitDx=0;exitDy=0;entryX=0.5;entryY=1;entryDx=0;entryDy=0;" edge="1" parent="1" source="1G_n7T1OoWQBEBEUNHC1-42" target="1G_n7T1OoWQBEBEUNHC1-25">
          <mxGeometry relative="1" as="geometry">
            <Array as="points">
              <mxPoint x="188" y="736" />
              <mxPoint x="408" y="736" />
              <mxPoint x="408" y="496" />
              <mxPoint x="188" y="496" />
            </Array>
          </mxGeometry>
        </mxCell>
        <mxCell id="1G_n7T1OoWQBEBEUNHC1-42" value="&lt;u&gt;player_id&lt;/u&gt;" style="whiteSpace=wrap;html=1;" vertex="1" parent="1">
          <mxGeometry x="148" y="688" width="80" height="20" as="geometry" />
        </mxCell>
        <mxCell id="1G_n7T1OoWQBEBEUNHC1-46" style="edgeStyle=orthogonalEdgeStyle;rounded=0;orthogonalLoop=1;jettySize=auto;html=1;exitX=0.5;exitY=1;exitDx=0;exitDy=0;entryX=0.671;entryY=1.027;entryDx=0;entryDy=0;entryPerimeter=0;" edge="1" parent="1" source="1G_n7T1OoWQBEBEUNHC1-43" target="1G_n7T1OoWQBEBEUNHC1-8">
          <mxGeometry relative="1" as="geometry">
            <mxPoint x="203" y="256" as="targetPoint" />
            <Array as="points">
              <mxPoint x="253" y="708" />
              <mxPoint x="253" y="730" />
              <mxPoint x="610" y="730" />
              <mxPoint x="610" y="276" />
              <mxPoint x="203" y="276" />
            </Array>
          </mxGeometry>
        </mxCell>
        <mxCell id="1G_n7T1OoWQBEBEUNHC1-43" value="&lt;u&gt;team_id&lt;span style=&quot;caret-color: rgba(0, 0, 0, 0); color: rgba(0, 0, 0, 0); font-family: monospace; font-size: 0px; text-align: start; white-space: nowrap;&quot;&gt;%3CmxGraphModel%3E%3Croot%3E%3CmxCell%20id%3D%220%22%2F%3E%3CmxCell%20id%3D%221%22%20parent%3D%220%22%2F%3E%3CmxCell%20id%3D%222%22%20value%3D%22position%22%20style%3D%22whiteSpace%3Dwrap%3Bhtml%3D1%3B%22%20vertex%3D%221%22%20parent%3D%221%22%3E%3CmxGeometry%20x%3D%22220%22%20y%3D%22502%22%20width%3D%2260%22%20height%3D%2220%22%20as%3D%22geometry%22%2F%3E%3C%2FmxCell%3E%3C%2Froot%3E%3C%2FmxGraphModel%3E&lt;/span&gt;&lt;/u&gt;" style="whiteSpace=wrap;html=1;" vertex="1" parent="1">
          <mxGeometry x="228" y="688" width="60" height="20" as="geometry" />
        </mxCell>
        <mxCell id="1G_n7T1OoWQBEBEUNHC1-44" value="cap_hit" style="whiteSpace=wrap;html=1;" vertex="1" parent="1">
          <mxGeometry x="288" y="688" width="50" height="20" as="geometry" />
        </mxCell>
        <mxCell id="1G_n7T1OoWQBEBEUNHC1-47" value="Assets" style="text;html=1;align=center;verticalAlign=middle;resizable=0;points=[];autosize=1;strokeColor=none;fillColor=none;" vertex="1" parent="1">
          <mxGeometry x="148" y="806" width="60" height="30" as="geometry" />
        </mxCell>
        <mxCell id="1G_n7T1OoWQBEBEUNHC1-48" value="&lt;u&gt;round&lt;/u&gt;" style="whiteSpace=wrap;html=1;" vertex="1" parent="1">
          <mxGeometry x="148" y="828" width="60" height="20" as="geometry" />
        </mxCell>
        <mxCell id="1G_n7T1OoWQBEBEUNHC1-49" value="&lt;u&gt;year&lt;/u&gt;" style="whiteSpace=wrap;html=1;" vertex="1" parent="1">
          <mxGeometry x="208" y="828" width="50" height="20" as="geometry" />
        </mxCell>
        <mxCell id="1G_n7T1OoWQBEBEUNHC1-53" style="edgeStyle=orthogonalEdgeStyle;rounded=0;orthogonalLoop=1;jettySize=auto;html=1;exitX=0.5;exitY=1;exitDx=0;exitDy=0;entryX=0.559;entryY=1.05;entryDx=0;entryDy=0;entryPerimeter=0;" edge="1" parent="1" source="1G_n7T1OoWQBEBEUNHC1-50" target="1G_n7T1OoWQBEBEUNHC1-8">
          <mxGeometry relative="1" as="geometry">
            <Array as="points">
              <mxPoint x="308" y="848" />
              <mxPoint x="308" y="870" />
              <mxPoint x="620" y="870" />
              <mxPoint x="620" y="286" />
              <mxPoint x="193" y="286" />
            </Array>
          </mxGeometry>
        </mxCell>
        <mxCell id="1G_n7T1OoWQBEBEUNHC1-50" value="&lt;u&gt;original_team_id&lt;/u&gt;" style="whiteSpace=wrap;html=1;" vertex="1" parent="1">
          <mxGeometry x="258" y="828" width="110" height="20" as="geometry" />
        </mxCell>
        <mxCell id="1G_n7T1OoWQBEBEUNHC1-54" style="edgeStyle=orthogonalEdgeStyle;rounded=0;orthogonalLoop=1;jettySize=auto;html=1;exitX=0.5;exitY=1;exitDx=0;exitDy=0;entryX=0.447;entryY=1.033;entryDx=0;entryDy=0;entryPerimeter=0;" edge="1" parent="1" source="1G_n7T1OoWQBEBEUNHC1-51" target="1G_n7T1OoWQBEBEUNHC1-8">
          <mxGeometry relative="1" as="geometry">
            <mxPoint x="173" y="238" as="targetPoint" />
            <Array as="points">
              <mxPoint x="415" y="848" />
              <mxPoint x="415" y="860" />
              <mxPoint x="633" y="860" />
              <mxPoint x="633" y="296" />
              <mxPoint x="183" y="296" />
            </Array>
          </mxGeometry>
        </mxCell>
        <mxCell id="1G_n7T1OoWQBEBEUNHC1-51" value="current_team_id" style="whiteSpace=wrap;html=1;" vertex="1" parent="1">
          <mxGeometry x="368" y="828" width="105" height="20" as="geometry" />
        </mxCell>
        <mxCell id="1G_n7T1OoWQBEBEUNHC1-55" value="Transactions" style="text;html=1;align=center;verticalAlign=middle;resizable=0;points=[];autosize=1;strokeColor=none;fillColor=none;" vertex="1" parent="1">
          <mxGeometry x="143" y="906" width="90" height="30" as="geometry" />
        </mxCell>
        <mxCell id="1G_n7T1OoWQBEBEUNHC1-62" style="edgeStyle=orthogonalEdgeStyle;rounded=0;orthogonalLoop=1;jettySize=auto;html=1;exitX=0.5;exitY=1;exitDx=0;exitDy=0;entryX=0.25;entryY=1;entryDx=0;entryDy=0;" edge="1" parent="1" source="1G_n7T1OoWQBEBEUNHC1-56" target="1G_n7T1OoWQBEBEUNHC1-25">
          <mxGeometry relative="1" as="geometry">
            <Array as="points">
              <mxPoint x="183" y="986" />
              <mxPoint x="678" y="986" />
              <mxPoint x="678" y="506" />
              <mxPoint x="168" y="506" />
            </Array>
          </mxGeometry>
        </mxCell>
        <mxCell id="1G_n7T1OoWQBEBEUNHC1-56" value="&lt;u&gt;player_id&lt;/u&gt;" style="whiteSpace=wrap;html=1;" vertex="1" parent="1">
          <mxGeometry x="148" y="928" width="70" height="20" as="geometry" />
        </mxCell>
        <mxCell id="1G_n7T1OoWQBEBEUNHC1-57" value="&lt;u&gt;origin_team_id&lt;/u&gt;" style="whiteSpace=wrap;html=1;" vertex="1" parent="1">
          <mxGeometry x="218" y="928" width="95" height="20" as="geometry" />
        </mxCell>
        <mxCell id="1G_n7T1OoWQBEBEUNHC1-58" value="&lt;u&gt;destination_team_id&lt;/u&gt;" style="whiteSpace=wrap;html=1;" vertex="1" parent="1">
          <mxGeometry x="313" y="928" width="125" height="20" as="geometry" />
        </mxCell>
        <mxCell id="1G_n7T1OoWQBEBEUNHC1-59" value="transaction_date" style="whiteSpace=wrap;html=1;" vertex="1" parent="1">
          <mxGeometry x="438" y="928" width="105" height="20" as="geometry" />
        </mxCell>
        <mxCell id="1G_n7T1OoWQBEBEUNHC1-60" value="transaction_type" style="whiteSpace=wrap;html=1;" vertex="1" parent="1">
          <mxGeometry x="543" y="928" width="105" height="20" as="geometry" />
        </mxCell>
        <mxCell id="1G_n7T1OoWQBEBEUNHC1-63" style="edgeStyle=orthogonalEdgeStyle;rounded=0;orthogonalLoop=1;jettySize=auto;html=1;exitX=0.5;exitY=1;exitDx=0;exitDy=0;entryX=0.336;entryY=1.022;entryDx=0;entryDy=0;entryPerimeter=0;" edge="1" parent="1" source="1G_n7T1OoWQBEBEUNHC1-57" target="1G_n7T1OoWQBEBEUNHC1-8">
          <mxGeometry relative="1" as="geometry">
            <Array as="points">
              <mxPoint x="266" y="976" />
              <mxPoint x="693" y="976" />
              <mxPoint x="693" y="306" />
              <mxPoint x="173" y="306" />
              <mxPoint x="173" y="238" />
            </Array>
          </mxGeometry>
        </mxCell>
        <mxCell id="1G_n7T1OoWQBEBEUNHC1-65" style="edgeStyle=orthogonalEdgeStyle;rounded=0;orthogonalLoop=1;jettySize=auto;html=1;exitX=0.5;exitY=1;exitDx=0;exitDy=0;" edge="1" parent="1" source="1G_n7T1OoWQBEBEUNHC1-58">
          <mxGeometry relative="1" as="geometry">
            <mxPoint x="163" y="240" as="targetPoint" />
            <Array as="points">
              <mxPoint x="376" y="968" />
              <mxPoint x="713" y="968" />
              <mxPoint x="713" y="316" />
              <mxPoint x="163" y="316" />
              <mxPoint x="163" y="240" />
              <mxPoint x="163" y="240" />
            </Array>
          </mxGeometry>
        </mxCell>
        <mxCell id="1G_n7T1OoWQBEBEUNHC1-67" value="first_name" style="whiteSpace=wrap;html=1;" vertex="1" parent="1">
          <mxGeometry x="228" y="358" width="72" height="20" as="geometry" />
        </mxCell>
        <mxCell id="1G_n7T1OoWQBEBEUNHC1-68" value="middle_name" style="whiteSpace=wrap;html=1;" vertex="1" parent="1">
          <mxGeometry x="300" y="358" width="80.75" height="20" as="geometry" />
        </mxCell>
      </root>
    </mxGraphModel>
  </diagram>
</mxfile>
